Coordinates
version=1
nRows=43
nColumns=12
inDegrees=yes

Units are S.I. units (second, meters, Newtons, ...)
Angles are in degrees

endheader
time	SC_y	SC_z	SC_x	AC_y	AC_z	AC_x	GH_y	GH_z	GH_yy	EL_x	PS_y
       0.0              -51.43          13.27          65.46          48.08          8.612         -15.66          104.3          1.523         -130.6          45.47           43.1
   0.03654              -51.42          13.27          65.46          48.08           8.61         -15.66          104.3          1.525         -130.6          45.47          43.11
   0.07308              -51.42          13.27          65.45          48.09          8.607         -15.66          104.3          1.527         -130.6          45.47          43.12
    0.1096              -51.41          13.27          65.45          48.09          8.604         -15.66          104.3           1.53         -130.6          45.47          43.14
    0.1462              -51.41          13.28          65.45          48.09            8.6         -15.66          104.2          1.533         -130.6          45.47          43.15
    0.1827               -51.4          13.28          65.44           48.1          8.597         -15.65          104.2          1.536         -130.6          45.47          43.16
    0.2193               -51.4          13.28          65.44           48.1          8.593         -15.65          104.2          1.539         -130.5          45.48          43.18
    0.2558              -51.39          13.28          65.43           48.1          8.589         -15.65          104.1          1.543         -130.5          45.48          43.19
    0.2923              -51.38          13.29          65.43          48.11          8.585         -15.65          104.1          1.546         -130.5          45.48          43.21
    0.3289              -51.38          13.29          65.42          48.11           8.58         -15.64          104.1           1.55         -130.5          45.48          43.23
    0.3654              -51.37          13.29          65.42          48.12          8.575         -15.64          104.0          1.554         -130.5          45.48          43.25
     0.402              -51.36           13.3          65.41          48.12           8.57         -15.64          104.0          1.559         -130.4          45.48          43.27
    0.4385              -51.35           13.3          65.41          48.13          8.564         -15.64          103.9          1.564         -130.4          45.48          43.29
     0.475              -51.34          13.31           65.4          48.13          8.558         -15.63          103.9          1.569         -130.4          45.48          43.32
    0.5116              -51.33          13.31          65.39          48.14          8.551         -15.63          103.8          1.575         -130.4          45.48          43.34
    0.5481              -51.32          13.32          65.38          48.15          8.543         -15.62          103.7          1.581         -130.3          45.48          43.37
    0.5847              -51.31          13.32          65.38          48.15          8.536         -15.62          103.7          1.588         -130.3          45.48           43.4
    0.6212              -51.29          13.33          65.37          48.16          8.527         -15.61          103.6          1.595         -130.3          45.49          43.44
    0.6578              -51.28          13.34          65.36          48.17          8.517         -15.61          103.5          1.603         -130.2          45.49          43.48
    0.6943              -51.26          13.35          65.34          48.18          8.507          -15.6          103.4          1.612         -130.2          45.49          43.52
    0.7308              -51.24          13.36          65.33          48.19          8.496          -15.6          103.3          1.622         -130.1          45.49          43.56
    0.7674              -51.22          13.37          65.32           48.2          8.483         -15.59          103.2          1.632         -130.1          45.49          43.61
    0.8039               -51.2          13.38           65.3          48.22          8.469         -15.58          103.1          1.644         -130.0          45.49          43.67
    0.8405              -51.18          13.39          65.29          48.23          8.454         -15.57          102.9          1.657         -130.0           45.5          43.73
     0.877              -51.15           13.4          65.27          48.25          8.437         -15.56          102.8          1.672         -129.9           45.5          43.79
    0.9135              -51.12          13.42          65.25          48.27          8.418         -15.55          102.6          1.688         -129.8           45.5          43.87
    0.9501              -51.08          13.43          65.22          48.29          8.397         -15.54          102.4          1.706         -129.7          45.51          43.95
    0.9866              -51.05          13.45           65.2          48.31          8.373         -15.52          102.2          1.726         -129.6          45.51          44.05
     1.023               -51.0          13.47          65.17          48.34          8.346         -15.51          102.0          1.749         -129.5          45.51          44.15
      1.06              -50.95           13.5          65.13          48.36          8.315         -15.49          101.7          1.776         -129.4          45.52          44.28
     1.096               -50.9          13.52          65.09           48.4           8.28         -15.47          101.4          1.805         -129.3          45.52          44.41
     1.133              -50.83          13.55          65.05          48.44           8.24         -15.44          101.0           1.84         -129.1          45.53          44.57
     1.169              -50.76          13.59           65.0          48.48          8.193         -15.42          100.6          1.879         -128.9          45.54          44.76
     1.206              -50.67          13.63          64.94          48.53          8.139         -15.39          100.2          1.925         -128.7          45.54          44.97
     1.242              -50.57          13.68          64.87          48.59          8.076         -15.35          99.59          1.979         -128.4          45.55          45.22
     1.279              -50.46          13.74          64.78          48.66          8.001          -15.3          98.93          2.042         -128.1          45.57          45.51
     1.316              -50.31          13.81          64.69          48.75          7.913         -15.25          98.15          2.117         -127.8          45.58          45.86
     1.352              -50.14          13.89          64.57          48.85          7.807         -15.19           97.2          2.208         -127.3          45.59          46.28
     1.389              -49.94          13.99          64.43          48.97          7.678         -15.11          96.07          2.317         -126.8          45.61          46.79
     1.425              -49.69          14.11          64.25          49.12          7.521         -15.02          94.68           2.45         -126.2          45.64          47.41
     1.462              -49.38          14.26          64.04          49.31          7.328         -14.91          92.96          2.615         -125.4          45.67          48.17
     1.498               -49.0          14.44          63.77          49.54          7.087         -14.76          90.82           2.82         -124.4           45.7          49.12
     1.535              -48.51          14.68          63.43          49.83          6.782         -14.59          88.12          3.078         -123.1          45.75          50.32
